<mxfile host="app.diagrams.net" agent="Mozilla/5.0 (Windows NT 10.0; Win64; x64) AppleWebKit/537.36 (KHTML, like Gecko) Chrome/129.0.0.0 Safari/537.36" version="24.8.4">
  <diagram id="C5RBs43oDa-KdzZeNtuy" name="Page-1">
    <mxGraphModel grid="1" page="1" gridSize="10" guides="1" tooltips="1" connect="1" arrows="1" fold="1" pageScale="1" pageWidth="827" pageHeight="1169" math="0" shadow="0">
      <root>
        <mxCell id="WIyWlLk6GJQsqaUBKTNV-0" />
        <mxCell id="WIyWlLk6GJQsqaUBKTNV-1" parent="WIyWlLk6GJQsqaUBKTNV-0" />
        <mxCell id="ikSKi2CkD7ASVcEJutWQ-1" value="" style="edgeStyle=orthogonalEdgeStyle;rounded=0;orthogonalLoop=1;jettySize=auto;html=1;" edge="1" parent="WIyWlLk6GJQsqaUBKTNV-1" source="WIyWlLk6GJQsqaUBKTNV-3" target="ikSKi2CkD7ASVcEJutWQ-0">
          <mxGeometry relative="1" as="geometry" />
        </mxCell>
        <mxCell id="WIyWlLk6GJQsqaUBKTNV-3" value="Start" style="rounded=1;whiteSpace=wrap;html=1;fontSize=12;glass=0;strokeWidth=1;shadow=0;" vertex="1" parent="WIyWlLk6GJQsqaUBKTNV-1">
          <mxGeometry x="160" y="110" width="120" height="40" as="geometry" />
        </mxCell>
        <mxCell id="ikSKi2CkD7ASVcEJutWQ-3" value="" style="edgeStyle=orthogonalEdgeStyle;rounded=0;orthogonalLoop=1;jettySize=auto;html=1;" edge="1" parent="WIyWlLk6GJQsqaUBKTNV-1" source="ikSKi2CkD7ASVcEJutWQ-0" target="ikSKi2CkD7ASVcEJutWQ-2">
          <mxGeometry relative="1" as="geometry" />
        </mxCell>
        <mxCell id="ikSKi2CkD7ASVcEJutWQ-0" value="ініціалізація змінних" style="rounded=0;whiteSpace=wrap;html=1;" vertex="1" parent="WIyWlLk6GJQsqaUBKTNV-1">
          <mxGeometry x="160" y="170" width="120" height="60" as="geometry" />
        </mxCell>
        <mxCell id="ikSKi2CkD7ASVcEJutWQ-7" value="" style="edgeStyle=orthogonalEdgeStyle;rounded=0;orthogonalLoop=1;jettySize=auto;html=1;" edge="1" parent="WIyWlLk6GJQsqaUBKTNV-1" source="ikSKi2CkD7ASVcEJutWQ-2" target="ikSKi2CkD7ASVcEJutWQ-6">
          <mxGeometry relative="1" as="geometry" />
        </mxCell>
        <mxCell id="ikSKi2CkD7ASVcEJutWQ-2" value="цикл від 1 з кроком 1 допоки число-доданок є більшим за 0.0001" style="strokeWidth=2;html=1;shape=mxgraph.flowchart.loop_limit;whiteSpace=wrap;" vertex="1" parent="WIyWlLk6GJQsqaUBKTNV-1">
          <mxGeometry x="140" y="260" width="160" height="60" as="geometry" />
        </mxCell>
        <mxCell id="ikSKi2CkD7ASVcEJutWQ-13" value="" style="edgeStyle=orthogonalEdgeStyle;rounded=0;orthogonalLoop=1;jettySize=auto;html=1;" edge="1" parent="WIyWlLk6GJQsqaUBKTNV-1" source="ikSKi2CkD7ASVcEJutWQ-4" target="ikSKi2CkD7ASVcEJutWQ-12">
          <mxGeometry relative="1" as="geometry" />
        </mxCell>
        <mxCell id="ikSKi2CkD7ASVcEJutWQ-4" value="" style="strokeWidth=2;html=1;shape=mxgraph.flowchart.loop_limit;whiteSpace=wrap;rotation=-180;" vertex="1" parent="WIyWlLk6GJQsqaUBKTNV-1">
          <mxGeometry x="140" y="500" width="160" height="60" as="geometry" />
        </mxCell>
        <mxCell id="ikSKi2CkD7ASVcEJutWQ-10" value="" style="edgeStyle=orthogonalEdgeStyle;rounded=0;orthogonalLoop=1;jettySize=auto;html=1;" edge="1" parent="WIyWlLk6GJQsqaUBKTNV-1" source="ikSKi2CkD7ASVcEJutWQ-6" target="ikSKi2CkD7ASVcEJutWQ-9">
          <mxGeometry relative="1" as="geometry" />
        </mxCell>
        <mxCell id="ikSKi2CkD7ASVcEJutWQ-6" value="Обчислення" style="whiteSpace=wrap;html=1;strokeWidth=2;" vertex="1" parent="WIyWlLk6GJQsqaUBKTNV-1">
          <mxGeometry x="160" y="340" width="120" height="60" as="geometry" />
        </mxCell>
        <mxCell id="ikSKi2CkD7ASVcEJutWQ-11" value="" style="edgeStyle=orthogonalEdgeStyle;rounded=0;orthogonalLoop=1;jettySize=auto;html=1;" edge="1" parent="WIyWlLk6GJQsqaUBKTNV-1" source="ikSKi2CkD7ASVcEJutWQ-9" target="ikSKi2CkD7ASVcEJutWQ-4">
          <mxGeometry relative="1" as="geometry" />
        </mxCell>
        <mxCell id="ikSKi2CkD7ASVcEJutWQ-9" value="Додавання результату до суми" style="whiteSpace=wrap;html=1;strokeWidth=2;" vertex="1" parent="WIyWlLk6GJQsqaUBKTNV-1">
          <mxGeometry x="160" y="420" width="120" height="60" as="geometry" />
        </mxCell>
        <mxCell id="ikSKi2CkD7ASVcEJutWQ-15" value="" style="edgeStyle=orthogonalEdgeStyle;rounded=0;orthogonalLoop=1;jettySize=auto;html=1;" edge="1" parent="WIyWlLk6GJQsqaUBKTNV-1" source="ikSKi2CkD7ASVcEJutWQ-12" target="ikSKi2CkD7ASVcEJutWQ-14">
          <mxGeometry relative="1" as="geometry" />
        </mxCell>
        <mxCell id="ikSKi2CkD7ASVcEJutWQ-12" value="Вивід суми" style="shape=parallelogram;perimeter=parallelogramPerimeter;whiteSpace=wrap;html=1;fixedSize=1;strokeWidth=2;" vertex="1" parent="WIyWlLk6GJQsqaUBKTNV-1">
          <mxGeometry x="160" y="580" width="120" height="60" as="geometry" />
        </mxCell>
        <mxCell id="ikSKi2CkD7ASVcEJutWQ-14" value="End" style="rounded=1;whiteSpace=wrap;html=1;strokeWidth=2;" vertex="1" parent="WIyWlLk6GJQsqaUBKTNV-1">
          <mxGeometry x="160" y="660" width="120" height="60" as="geometry" />
        </mxCell>
      </root>
    </mxGraphModel>
  </diagram>
</mxfile>
